<?xml version="1.0" encoding="UTF-8" standalone="no"?>
<!-- Created with Inkscape (http://www.inkscape.org/) -->

<svg
   xmlns:dc="http://purl.org/dc/elements/1.1/"
   xmlns:cc="http://creativecommons.org/ns#"
   xmlns:rdf="http://www.w3.org/1999/02/22-rdf-syntax-ns#"
   xmlns:svg="http://www.w3.org/2000/svg"
   xmlns="http://www.w3.org/2000/svg"
   xmlns:xlink="http://www.w3.org/1999/xlink"
   xmlns:sodipodi="http://sodipodi.sourceforge.net/DTD/sodipodi-0.dtd"
   xmlns:inkscape="http://www.inkscape.org/namespaces/inkscape"
   width="210mm"
   height="297mm"
   viewBox="0 0 210 297"
   version="1.1"
   id="svg8"
   inkscape:version="0.92.3 (2405546, 2018-03-11)"
   sodipodi:docname="reference.svg">
  <defs
     id="defs2">
    <pattern
       inkscape:collect="always"
       xlink:href="#Checkerboard"
       id="pattern2288"
       patternTransform="matrix(0.20530023,0,0,0.14114392,28.25294,107.05489)" />
    <pattern
       inkscape:stockid="Checkerboard"
       id="Checkerboard"
       patternTransform="translate(0,0) scale(10,10)"
       height="2"
       width="2"
       patternUnits="userSpaceOnUse"
       inkscape:collect="always">
      <rect
         id="rect1642"
         height="1"
         width="1"
         y="0"
         x="0"
         style="fill:black;stroke:none" />
      <rect
         id="rect1644"
         height="1"
         width="1"
         y="1"
         x="1"
         style="fill:black;stroke:none" />
    </pattern>
  </defs>
  <sodipodi:namedview
     id="base"
     pagecolor="#ffffff"
     bordercolor="#666666"
     borderopacity="1.0"
     inkscape:pageopacity="0.0"
     inkscape:pageshadow="2"
     inkscape:zoom="4"
     inkscape:cx="87.931094"
     inkscape:cy="736.10408"
     inkscape:document-units="mm"
     inkscape:current-layer="layer2"
     showgrid="false"
     inkscape:window-width="1920"
     inkscape:window-height="1137"
     inkscape:window-x="1912"
     inkscape:window-y="-4"
     inkscape:window-maximized="1"
     inkscape:snap-global="false" />
  <metadata
     id="metadata5">
    <rdf:RDF>
      <cc:Work
         rdf:about="">
        <dc:format>image/svg+xml</dc:format>
        <dc:type
           rdf:resource="http://purl.org/dc/dcmitype/StillImage" />
        <dc:title />
      </cc:Work>
    </rdf:RDF>
  </metadata>
  <g
     inkscape:groupmode="layer"
     id="layer3"
     inkscape:label="Backgound"
     sodipodi:insensitive="true">
    <rect
       style="opacity:1;fill:#fdf1dc;fill-opacity:1;fill-rule:evenodd;stroke:none;stroke-width:0.26458332;stroke-miterlimit:4;stroke-dasharray:none;stroke-dashoffset:0;stroke-opacity:1"
       id="rect858"
       width="150.24553"
       height="102.05357"
       x="28.159225"
       y="77.962791" />
  </g>
  <g
     inkscape:label="colors"
     inkscape:groupmode="layer"
     id="layer1"
     sodipodi:insensitive="true">
    <rect
       style="opacity:0.181;fill:url(#pattern2288);fill-opacity:1;fill-rule:evenodd;stroke:none;stroke-width:0.18133825;stroke-miterlimit:4;stroke-dasharray:none;stroke-dashoffset:0;stroke-opacity:1"
       id="rect825"
       width="10.583333"
       height="14.552083"
       x="11.90625"
       y="98.5625" />
    <rect
       y="110.46875"
       x="18.520834"
       height="1.3229166"
       width="1.3229166"
       id="rect817"
       style="opacity:1;fill:#dac7a6;fill-opacity:1;fill-rule:evenodd;stroke:none;stroke-width:0.03818728;stroke-miterlimit:4;stroke-dasharray:none;stroke-dashoffset:0;stroke-opacity:1" />
    <rect
       style="opacity:1;fill:#fdf1dc;fill-opacity:1;fill-rule:evenodd;stroke:none;stroke-width:0.03818728;stroke-miterlimit:4;stroke-dasharray:none;stroke-dashoffset:0;stroke-opacity:1"
       id="rect819"
       width="1.3229166"
       height="1.3229166"
       x="17.197918"
       y="110.46875" />
    <rect
       y="110.46875"
       x="15.875001"
       height="1.3229166"
       width="1.3229166"
       id="rect821"
       style="opacity:1;fill:#fffaf1;fill-opacity:1;fill-rule:evenodd;stroke:none;stroke-width:0.03818728;stroke-miterlimit:4;stroke-dasharray:none;stroke-dashoffset:0;stroke-opacity:1" />
    <rect
       style="opacity:1;fill:#fffefd;fill-opacity:1;fill-rule:evenodd;stroke:none;stroke-width:0.03818728;stroke-miterlimit:4;stroke-dasharray:none;stroke-dashoffset:0;stroke-opacity:1"
       id="rect823"
       width="1.3229166"
       height="1.3229166"
       x="14.552084"
       y="110.46875" />
    <rect
       y="109.14584"
       x="18.520834"
       height="1.3229166"
       width="1.3229166"
       id="rect827"
       style="opacity:1;fill:#3c1710;fill-opacity:1;fill-rule:evenodd;stroke:none;stroke-width:0.03818728;stroke-miterlimit:4;stroke-dasharray:none;stroke-dashoffset:0;stroke-opacity:1" />
    <rect
       style="opacity:1;fill:#ba8672;fill-opacity:1;fill-rule:evenodd;stroke:none;stroke-width:0.03818728;stroke-miterlimit:4;stroke-dasharray:none;stroke-dashoffset:0;stroke-opacity:1"
       id="rect833"
       width="1.3229166"
       height="1.3229166"
       x="14.552084"
       y="109.14584" />
    <rect
       y="109.14584"
       x="13.229167"
       height="1.3229166"
       width="1.3229166"
       id="rect835"
       style="opacity:1;fill:#d9b6a2;fill-opacity:1;fill-rule:evenodd;stroke:none;stroke-width:0.03818728;stroke-miterlimit:4;stroke-dasharray:none;stroke-dashoffset:0;stroke-opacity:1" />
    <rect
       style="opacity:1;fill:#7a200c;fill-opacity:0.70196078;fill-rule:evenodd;stroke:none;stroke-width:0.03818728;stroke-miterlimit:4;stroke-dasharray:none;stroke-dashoffset:0;stroke-opacity:1"
       id="rect2290"
       width="1.3229166"
       height="1.3229166"
       x="19.84375"
       y="109.14584" />
    <rect
       y="106.50002"
       x="18.520834"
       height="1.3229166"
       width="1.3229166"
       id="rect2302"
       style="opacity:1;fill:#7a460d;fill-opacity:1;fill-rule:evenodd;stroke:none;stroke-width:0.03818728;stroke-miterlimit:4;stroke-dasharray:none;stroke-dashoffset:0;stroke-opacity:1" />
    <rect
       style="opacity:1;fill:#ffdfbd;fill-opacity:1;fill-rule:evenodd;stroke:none;stroke-width:0.03818728;stroke-miterlimit:4;stroke-dasharray:none;stroke-dashoffset:0;stroke-opacity:1"
       id="rect2304"
       width="1.3229166"
       height="1.3229166"
       x="14.552084"
       y="106.50002" />
    <rect
       y="106.50002"
       x="17.197918"
       height="1.3229166"
       width="1.3229166"
       id="rect2306"
       style="opacity:1;fill:#a2692b;fill-opacity:1;fill-rule:evenodd;stroke:none;stroke-width:0.03818728;stroke-miterlimit:4;stroke-dasharray:none;stroke-dashoffset:0;stroke-opacity:1" />
    <rect
       y="106.50002"
       x="15.875001"
       height="1.3229166"
       width="1.3229166"
       id="rect2308"
       style="opacity:1;fill:#c89154;fill-opacity:1;fill-rule:evenodd;stroke:none;stroke-width:0.03818728;stroke-miterlimit:4;stroke-dasharray:none;stroke-dashoffset:0;stroke-opacity:1" />
    <rect
       style="opacity:1;fill:#7a200d;fill-opacity:1;fill-rule:evenodd;stroke:none;stroke-width:0.03818728;stroke-miterlimit:4;stroke-dasharray:none;stroke-dashoffset:0;stroke-opacity:1"
       id="rect2310"
       width="1.3229166"
       height="1.3229166"
       x="18.520834"
       y="107.82293" />
    <rect
       y="107.82294"
       x="14.552084"
       height="1.3229166"
       width="1.3229166"
       id="rect2312"
       style="opacity:1;fill:#ffc8bd;fill-opacity:1;fill-rule:evenodd;stroke:none;stroke-width:0.03818728;stroke-miterlimit:4;stroke-dasharray:none;stroke-dashoffset:0;stroke-opacity:1" />
    <rect
       y="107.82294"
       x="15.875001"
       height="1.3229166"
       width="1.3229166"
       id="rect2316"
       style="opacity:1;fill:#c86854;fill-opacity:1;fill-rule:evenodd;stroke:none;stroke-width:0.03818728;stroke-miterlimit:4;stroke-dasharray:none;stroke-dashoffset:0;stroke-opacity:1" />
    <rect
       style="opacity:1;fill:#903523;fill-opacity:1;fill-rule:evenodd;stroke:none;stroke-width:0.03818728;stroke-miterlimit:4;stroke-dasharray:none;stroke-dashoffset:0;stroke-opacity:1"
       id="rect2320"
       width="1.3229166"
       height="1.3229166"
       x="15.875001"
       y="109.14584" />
    <rect
       style="opacity:1;fill:#a2402b;fill-opacity:1;fill-rule:evenodd;stroke:none;stroke-width:0.03818728;stroke-miterlimit:4;stroke-dasharray:none;stroke-dashoffset:0;stroke-opacity:1"
       id="rect2322"
       width="1.3229166"
       height="1.3229166"
       x="17.197918"
       y="107.82294" />
    <rect
       y="109.14584"
       x="17.197918"
       height="1.3229166"
       width="1.3229166"
       id="rect2324"
       style="opacity:1;fill:#7a200d;fill-opacity:1;fill-rule:evenodd;stroke:none;stroke-width:0.03818728;stroke-miterlimit:4;stroke-dasharray:none;stroke-dashoffset:0;stroke-opacity:1" />
    <rect
       y="110.46875"
       x="13.229167"
       height="1.3229166"
       width="1.3229166"
       id="rect2326"
       style="opacity:1;fill:#ffffff;fill-opacity:1;fill-rule:evenodd;stroke:none;stroke-width:0.03818728;stroke-miterlimit:4;stroke-dasharray:none;stroke-dashoffset:0;stroke-opacity:1" />
    <rect
       style="opacity:1;fill:#7a5f0d;fill-opacity:1;fill-rule:evenodd;stroke:none;stroke-width:0.03818728;stroke-miterlimit:4;stroke-dasharray:none;stroke-dashoffset:0;stroke-opacity:1"
       id="rect2328"
       width="1.3229166"
       height="1.3229166"
       x="18.520834"
       y="105.17711" />
    <rect
       y="105.17711"
       x="14.552084"
       height="1.3229166"
       width="1.3229166"
       id="rect2330"
       style="opacity:1;fill:#fff3bd;fill-opacity:1;fill-rule:evenodd;stroke:none;stroke-width:0.03818728;stroke-miterlimit:4;stroke-dasharray:none;stroke-dashoffset:0;stroke-opacity:1" />
    <rect
       style="opacity:1;fill:#a2842b;fill-opacity:1;fill-rule:evenodd;stroke:none;stroke-width:0.03818728;stroke-miterlimit:4;stroke-dasharray:none;stroke-dashoffset:0;stroke-opacity:1"
       id="rect2332"
       width="1.3229166"
       height="1.3229166"
       x="17.197918"
       y="105.17711" />
    <rect
       style="opacity:1;fill:#c8ab54;fill-opacity:1;fill-rule:evenodd;stroke:none;stroke-width:0.03818728;stroke-miterlimit:4;stroke-dasharray:none;stroke-dashoffset:0;stroke-opacity:1"
       id="rect2334"
       width="1.3229166"
       height="1.3229166"
       x="15.875001"
       y="105.17711" />
    <rect
       y="103.85419"
       x="18.520834"
       height="1.3229166"
       width="1.3229166"
       id="rect2336"
       style="opacity:1;fill:#2b4c00;fill-opacity:1;fill-rule:evenodd;stroke:none;stroke-width:0.03818728;stroke-miterlimit:4;stroke-dasharray:none;stroke-dashoffset:0;stroke-opacity:1" />
    <rect
       style="opacity:1;fill:#98cdac;fill-opacity:1;fill-rule:evenodd;stroke:none;stroke-width:0.03818728;stroke-miterlimit:4;stroke-dasharray:none;stroke-dashoffset:0;stroke-opacity:1"
       id="rect2338"
       width="1.3229166"
       height="1.3229166"
       x="14.552084"
       y="103.85419" />
    <rect
       y="103.85419"
       x="17.197918"
       height="1.3229166"
       width="1.3229166"
       id="rect2340"
       style="opacity:1;fill:#446f0c;fill-opacity:1;fill-rule:evenodd;stroke:none;stroke-width:0.03818728;stroke-miterlimit:4;stroke-dasharray:none;stroke-dashoffset:0;stroke-opacity:1" />
    <rect
       y="103.85419"
       x="15.875001"
       height="1.3229166"
       width="1.3229166"
       id="rect2342"
       style="opacity:1;fill:#659428;fill-opacity:1;fill-rule:evenodd;stroke:none;stroke-width:0.03818728;stroke-miterlimit:4;stroke-dasharray:none;stroke-dashoffset:0;stroke-opacity:1" />
    <rect
       style="opacity:1;fill:#0b3b4d;fill-opacity:1;fill-rule:evenodd;stroke:none;stroke-width:0.03818728;stroke-miterlimit:4;stroke-dasharray:none;stroke-dashoffset:0;stroke-opacity:1"
       id="rect2344"
       width="1.3229166"
       height="1.3229166"
       x="18.520834"
       y="102.53127" />
    <rect
       y="102.53127"
       x="14.552084"
       height="1.3229166"
       width="1.3229166"
       id="rect2346"
       style="opacity:1;fill:#8daebb;fill-opacity:1;fill-rule:evenodd;stroke:none;stroke-width:0.03818728;stroke-miterlimit:4;stroke-dasharray:none;stroke-dashoffset:0;stroke-opacity:1" />
    <rect
       style="opacity:1;fill:#1e5266;fill-opacity:1;fill-rule:evenodd;stroke:none;stroke-width:0.03818728;stroke-miterlimit:4;stroke-dasharray:none;stroke-dashoffset:0;stroke-opacity:1"
       id="rect2348"
       width="1.3229166"
       height="1.3229166"
       x="17.197918"
       y="102.53127" />
    <rect
       style="opacity:1;fill:#386b7e;fill-opacity:1;fill-rule:evenodd;stroke:none;stroke-width:0.03818728;stroke-miterlimit:4;stroke-dasharray:none;stroke-dashoffset:0;stroke-opacity:1"
       id="rect2350"
       width="1.3229166"
       height="1.3229166"
       x="15.875001"
       y="102.53127" />
    <rect
       y="101.20836"
       x="18.520834"
       height="1.3229166"
       width="1.3229166"
       id="rect2352"
       style="opacity:1;fill:#680b32;fill-opacity:1;fill-rule:evenodd;stroke:none;stroke-width:0.03818728;stroke-miterlimit:4;stroke-dasharray:none;stroke-dashoffset:0;stroke-opacity:1" />
    <rect
       style="opacity:1;fill:#e4a9c2;fill-opacity:1;fill-rule:evenodd;stroke:none;stroke-width:0.03818728;stroke-miterlimit:4;stroke-dasharray:none;stroke-dashoffset:0;stroke-opacity:1"
       id="rect2354"
       width="1.3229166"
       height="1.3229166"
       x="14.552084"
       y="101.20836" />
    <rect
       y="101.20836"
       x="17.197918"
       height="1.3229166"
       width="1.3229166"
       id="rect2356"
       style="opacity:1;fill:#8a254f;fill-opacity:1;fill-rule:evenodd;stroke:none;stroke-width:0.03818728;stroke-miterlimit:4;stroke-dasharray:none;stroke-dashoffset:0;stroke-opacity:1" />
    <rect
       y="101.20836"
       x="15.875001"
       height="1.3229166"
       width="1.3229166"
       id="rect2358"
       style="opacity:1;fill:#ab4872;fill-opacity:1;fill-rule:evenodd;stroke:none;stroke-width:0.03818728;stroke-miterlimit:4;stroke-dasharray:none;stroke-dashoffset:0;stroke-opacity:1" />
    <rect
       style="opacity:1;fill:#3a3a3a;fill-opacity:1;fill-rule:evenodd;stroke:none;stroke-width:0.03818728;stroke-miterlimit:4;stroke-dasharray:none;stroke-dashoffset:0;stroke-opacity:1"
       id="rect2360"
       width="1.3229166"
       height="1.3229166"
       x="18.520834"
       y="99.885445" />
    <rect
       y="99.885445"
       x="14.552084"
       height="1.3229166"
       width="1.3229166"
       id="rect2362"
       style="opacity:1;fill:#dedede;fill-opacity:1;fill-rule:evenodd;stroke:none;stroke-width:0.03818728;stroke-miterlimit:4;stroke-dasharray:none;stroke-dashoffset:0;stroke-opacity:1" />
    <rect
       style="opacity:1;fill:#585858;fill-opacity:1;fill-rule:evenodd;stroke:none;stroke-width:0.03818728;stroke-miterlimit:4;stroke-dasharray:none;stroke-dashoffset:0;stroke-opacity:1"
       id="rect2364"
       width="1.3229166"
       height="1.3229166"
       x="17.197918"
       y="99.885445" />
    <rect
       style="opacity:1;fill:#7a7a7a;fill-opacity:1;fill-rule:evenodd;stroke:none;stroke-width:0.03818728;stroke-miterlimit:4;stroke-dasharray:none;stroke-dashoffset:0;stroke-opacity:1"
       id="rect2366"
       width="1.3229166"
       height="1.3229166"
       x="15.875001"
       y="99.885445" />
  </g>
  <g
     inkscape:groupmode="layer"
     id="layer2"
     inkscape:label="Login Icons">
    <path
       style="opacity:1;fill:#7a200d;fill-opacity:1;fill-rule:evenodd;stroke:none;stroke-width:1.23323071;stroke-miterlimit:4;stroke-dasharray:none;stroke-dashoffset:0;stroke-opacity:1"
       d="M 74.636719 354.27539 C 72.872534 354.27539 71.417969 355.72994 71.417969 357.49414 L 71.417969 361.12695 L 72.490234 361.12695 L 72.490234 357.49414 C 72.490234 356.30492 73.447517 355.34766 74.636719 355.34766 L 77.820312 355.34766 C 77.819237 355.36052 77.8125 355.37161 77.8125 355.38477 L 77.8125 368.7168 C 77.8125 368.88753 77.90917 369.03043 78.046875 369.10938 L 74.636719 369.10938 C 73.447517 369.10938 72.490234 368.15208 72.490234 366.96289 L 72.490234 363.85742 L 71.417969 363.85742 L 71.417969 366.96484 C 71.417969 368.72901 72.872511 370.18359 74.636719 370.18359 L 80.947266 370.18359 C 82.711477 370.18359 84.166016 368.72901 84.166016 366.96484 L 84.166016 357.49414 C 84.166016 356.58735 83.779106 355.76545 83.166016 355.17773 C 83.109887 355.0676 83.011083 354.98734 82.890625 354.95117 C 82.34766 354.53388 81.677561 354.27538 80.947266 354.27539 L 74.636719 354.27539 z M 74.730469 358.75195 C 74.657562 358.76102 74.585421 358.78518 74.517578 358.82422 L 74.384766 358.90234 C 74.113433 359.05901 74.021111 359.4025 74.177734 359.67383 L 75.431641 361.84766 L 70.126953 361.84766 C 69.771111 361.84766 69.484375 362.13245 69.484375 362.48828 C 69.484375 362.84412 69.771092 363.13086 70.126953 363.13086 L 75.408203 363.13086 L 74.177734 365.26367 C 74.021073 365.535 74.113433 365.87851 74.384766 366.03516 L 74.517578 366.11133 C 74.78891 366.26799 75.134366 366.17563 75.291016 365.9043 L 76.998047 362.94727 C 77.074318 362.87266 77.122738 362.77695 77.154297 362.67188 C 77.167903 362.63408 77.176349 362.59659 77.181641 362.55664 C 77.185243 362.53699 77.187941 362.51781 77.189453 362.49805 C 77.189506 362.49505 77.191406 362.49206 77.191406 362.48828 C 77.191406 362.4811 77.189532 362.47593 77.189453 362.46875 C 77.18878 362.43889 77.187268 362.41049 77.181641 362.38086 C 77.174837 362.33097 77.16009 362.28466 77.140625 362.23828 C 77.119082 362.18707 77.095066 362.13718 77.058594 362.09375 L 75.291016 359.03125 C 75.17351 358.82776 74.949194 358.72455 74.730469 358.75195 z "
       transform="scale(0.26458333)"
       id="rect874" />
    <path
       inkscape:connector-curvature="0"
       d="m 15.456641,94.919748 c -0.01929,0.0024 -0.03838,0.0088 -0.05633,0.01913 l -0.03514,0.02066 c -0.07179,0.04145 -0.09622,0.132332 -0.05478,0.204121 l 0.331763,0.575159 h -1.403532 c -0.09415,0 -0.170015,0.07535 -0.170015,0.169498 0,0.09415 0.07586,0.170016 0.170015,0.170016 h 1.397331 l -0.325562,0.564306 c -0.04145,0.07179 -0.01701,0.162676 0.05478,0.204123 l 0.03514,0.02016 c 0.07179,0.04145 0.163192,0.01701 0.204639,-0.05478 l 0.451652,-0.782381 c 0.02018,-0.01974 0.03299,-0.04506 0.04134,-0.07286 0.0036,-0.01 0.0058,-0.01992 0.0072,-0.03049 9.53e-4,-0.0052 0.0017,-0.01027 0.0021,-0.0155 1.4e-5,-7.94e-4 5.29e-4,-0.0016 5.29e-4,-0.0026 0,-0.0019 -9.79e-4,-0.0033 -0.001,-0.0052 -1.78e-4,-0.0079 -1.11e-4,-0.01542 -0.0016,-0.02326 -0.0018,-0.0132 -0.0057,-0.02545 -0.01085,-0.03772 -0.0057,-0.01355 -0.01205,-0.02675 -0.0217,-0.03824 l -0.467672,-0.810286 c -0.03109,-0.05384 -0.09044,-0.08115 -0.148311,-0.0739 z m -0.0248,-1.184426 c -0.466774,0 -0.851627,0.38485 -0.851627,0.851628 v 0.961184 h 0.283703 V 94.58695 c 0,-0.314648 0.253281,-0.567923 0.567924,-0.567923 h 1.670699 c 0.314643,0 0.567923,0.253275 0.567923,0.567923 v 2.505273 c 0,0.31464 -0.25328,0.567926 -0.567923,0.567926 h -1.670699 c -0.314643,0 -0.567924,-0.253286 -0.567924,-0.567926 V 96.27057 h -0.283703 v 0.822172 c 0,0.46677 0.384847,0.851627 0.851627,0.851627 h 1.669665 c 0.466781,0 0.851628,-0.384857 0.851628,-0.851627 V 94.58695 c 0,-0.466778 -0.384853,-0.851636 -0.851628,-0.851628 z"
       style="opacity:1;fill:#7a200d;fill-opacity:1;fill-rule:evenodd;stroke:none;stroke-width:0.32629228;stroke-miterlimit:4;stroke-dasharray:none;stroke-dashoffset:0;stroke-opacity:1"
       id="path914" />
    <g
       id="g935">
      <path
         id="path931"
         d="m 21.466921,88.873644 c 0.466774,0 0.851628,0.384849 0.851628,0.851627 v 0.961181 h -0.283704 v -0.961181 c 0,-0.314648 -0.253281,-0.567923 -0.567924,-0.567923 h -0.842325 c 2.84e-4,0.0034 0.0021,0.0063 0.0021,0.0098 V 92.6946 c 0,0.04517 -0.02558,0.08298 -0.06201,0.10387 h 0.90227 c 0.314643,0 0.567924,-0.253285 0.567924,-0.567925 v -0.821656 h 0.283704 v 0.822172 c 0,0.46677 -0.384848,0.851627 -0.851628,0.851627 h -1.669665 c -0.466781,0 -0.851628,-0.384857 -0.851628,-0.851627 v -2.50579 c 0,-0.239921 0.10237,-0.457382 0.264584,-0.612883 0.01485,-0.02914 0.04099,-0.05037 0.07286,-0.05994 0.14366,-0.110408 0.320957,-0.178803 0.514181,-0.1788 z"
         style="opacity:1;fill:#7a200d;fill-opacity:1;fill-rule:evenodd;stroke:none;stroke-width:0.32629228;stroke-miterlimit:4;stroke-dasharray:none;stroke-dashoffset:0;stroke-opacity:1" />
      <path
         inkscape:connector-curvature="0"
         id="path921"
         d="m 22.790888,90.058067 c -0.01929,0.0024 -0.03838,0.0088 -0.05633,0.01912 l -0.03514,0.02067 c -0.07179,0.04145 -0.09622,0.132334 -0.05478,0.204123 l 0.331763,0.575159 h -1.403532 c -0.09415,0 -0.170016,0.07535 -0.170016,0.169497 0,0.09415 0.07586,0.170016 0.170016,0.170016 h 1.39733 l -0.325561,0.564306 c -0.04145,0.07179 -0.01701,0.162677 0.05478,0.204124 l 0.03514,0.02015 c 0.07179,0.04145 0.163192,0.01701 0.204639,-0.05478 l 0.451652,-0.78238 c 0.02018,-0.01974 0.03299,-0.04506 0.04134,-0.07286 0.0036,-0.01 0.0058,-0.01992 0.0072,-0.03049 9.53e-4,-0.0052 0.0017,-0.01027 0.0021,-0.0155 1.4e-5,-7.93e-4 5.16e-4,-0.0016 5.16e-4,-0.0026 0,-0.0019 -4.96e-4,-0.0033 -5.16e-4,-0.0052 -1.79e-4,-0.0079 -5.79e-4,-0.01541 -0.0021,-0.02325 -0.0018,-0.0132 -0.0057,-0.02545 -0.01085,-0.03772 -0.0057,-0.01355 -0.01205,-0.02675 -0.0217,-0.03824 l -0.467671,-0.810286 c -0.03109,-0.05384 -0.09044,-0.08115 -0.148312,-0.0739 z"
         style="opacity:1;fill:#7a200d;fill-opacity:1;fill-rule:evenodd;stroke:none;stroke-width:0.32629228;stroke-miterlimit:4;stroke-dasharray:none;stroke-dashoffset:0;stroke-opacity:1" />
    </g>
    <g
       id="g939">
      <path
         inkscape:connector-curvature="0"
         id="path927"
         d="m 18.225897,90.058029 c -0.01929,0.0024 -0.03838,0.0088 -0.05633,0.01913 l -0.03514,0.02066 c -0.07179,0.04145 -0.09622,0.132332 -0.05478,0.204121 l 0.331763,0.575159 h -1.403532 c -0.09415,0 -0.170015,0.07535 -0.170015,0.169498 0,0.09415 0.07586,0.170016 0.170015,0.170016 h 1.397331 l -0.325562,0.564306 c -0.04145,0.07179 -0.01701,0.162676 0.05478,0.204123 l 0.03514,0.02016 c 0.07179,0.04145 0.163192,0.01701 0.204639,-0.05478 l 0.451652,-0.782381 c 0.02018,-0.01974 0.03299,-0.04506 0.04134,-0.07286 0.0036,-0.01 0.0058,-0.01992 0.0072,-0.03049 9.53e-4,-0.0052 0.0017,-0.01027 0.0021,-0.0155 1.4e-5,-7.94e-4 5.29e-4,-0.0016 5.29e-4,-0.0026 0,-0.0019 -9.79e-4,-0.0033 -10e-4,-0.0052 -1.78e-4,-0.0079 -1.11e-4,-0.01542 -0.0016,-0.02326 -0.0018,-0.0132 -0.0057,-0.02545 -0.01085,-0.03772 -0.0057,-0.01355 -0.01205,-0.02675 -0.0217,-0.03824 l -0.467672,-0.810286 c -0.03109,-0.05384 -0.09044,-0.08115 -0.148311,-0.0739 z"
         style="opacity:1;fill:#7a200d;fill-opacity:1;fill-rule:evenodd;stroke:none;stroke-width:0.32629228;stroke-miterlimit:4;stroke-dasharray:none;stroke-dashoffset:0;stroke-opacity:1" />
      <path
         id="path923"
         d="m 17.034236,88.873603 c 0.466774,0 0.851627,0.38485 0.851627,0.851628 v 0.961184 H 17.60216 v -0.961184 c 0,-0.314648 -0.253281,-0.567923 -0.567924,-0.567923 h -1.670699 c -0.314643,0 -0.567923,0.253275 -0.567923,0.567923 v 2.505273 c 0,0.31464 0.25328,0.567926 0.567923,0.567926 h 1.670699 c 0.314643,0 0.567924,-0.253286 0.567924,-0.567926 v -0.821653 h 0.283703 v 0.822172 c 0,0.46677 -0.384847,0.851627 -0.851627,0.851627 h -1.669665 c -0.466781,0 -0.851628,-0.384857 -0.851628,-0.851627 v -2.505792 c 0,-0.466778 0.384853,-0.851636 0.851628,-0.851628 z"
         style="opacity:1;fill:#7a200d;fill-opacity:1;fill-rule:evenodd;stroke:none;stroke-width:0.32629228;stroke-miterlimit:4;stroke-dasharray:none;stroke-dashoffset:0;stroke-opacity:1" />
    </g>
  </g>
</svg>
